# xmcd CD database file
#
# Track frame offsets:
#	150
#	14947
#	28780
#	43326
#	56830
#	72960
#	85484
#	98460
#	114975
#	126631
#	140005
#	162129
#	172329
#	185268
#	201422
#	216941
#
# Disc length: 2979 seconds
#
# Revision: 2
# Processed by: cddbd v1.5.2PL0 Copyright (c) Steve Scherf et al.
# Submitted via: CDex 1.72
#
DISCID=fd0ba110
DTITLE=Masters, Matt [CDN-05-Centennial Swell-cty) - Centennial Swell
DYEAR=2005
DGENRE=Country
TTITLE0=Centennial Swell 
TTITLE1=Let's Get Out of Here Eyes
TTITLE2=The Speed Train
TTITLE3=Sophie
TTITLE4=Whiskey Business
TTITLE5=Standing at the Crossroad
TTITLE6=Poor Poor Farmer
TTITLE7=Belleville Belvedere
TTITLE8=Smoke My Soul
TTITLE9=Drunk Blues
TTITLE10=Pumpkin Hunting
TTITLE11=Blood on the Saddle
TTITLE12=Vermillion
TTITLE13=Don't Leave the Fire
TTITLE14=Goodnight Goodbye
TTITLE15=untitled
EXTD=YEAR: 2005
EXTT0=
EXTT1=
EXTT2=
EXTT3=
EXTT4=
EXTT5=
EXTT6=
EXTT7=
EXTT8=
EXTT9=
EXTT10=
EXTT11=
EXTT12=
EXTT13=
EXTT14=
EXTT15=
PLAYORDER=
